
<svg id="Слой_1" data-name="Слой 1" xmlns="http://www.w3.org/2000/svg" viewBox="0 0 820.94 320.12"><title>logo_new</title><path fill="#e02c00" d="M893.28,389.09c-13.18-4.61-17.35-7.24-17.35-12.29,0-5.49,4.61-8.78,12.73-8.78,9.22,0,18.44,3.51,23.27,6.15l5.93-23.05c-6.59-3.29-17.79-6.15-30.29-6.15-26.57,0-43.69,15.15-43.69,35.34-.21,12.51,8.35,24.59,30.52,32.05,12.51,4.17,15.8,6.81,15.8,12.29s-4.16,9-14.27,9c-9.87,0-22.61-4.39-28.76-8.12l-5.92,23.93c8.12,4.39,20.63,7.68,34.68,7.68,30.74,0,46.54-14.92,46.54-34.91C922.25,406.43,913.69,396.11,893.28,389.09Z" transform="translate(-101.53 -223.94)"/><path fill="#e02c00" d="M227.6,345a38.74,38.74,0,0,0-20.42,5.27,45.2,45.2,0,0,0-13.83,13h-.44C188.31,352,177.33,345,163.5,345A37.8,37.8,0,0,0,131,361.86h-.66l-1.54-14.49h-.63a30.16,30.16,0,0,0-26.65,26c0,2.67.06,5.39.06,8.24v73.1h32.49V392.16a22.09,22.09,0,0,1,1.32-8.34c2-5.49,7-12.07,15.59-12.07a12.87,12.87,0,0,1,10.56,5c3.22,4,4.81,10.2,4.81,17.86v60.15h32.49V391.94a27.94,27.94,0,0,1,1.32-8.56c2.19-6.37,7.68-11.64,15.37-11.64,10.76,0,15.81,9,15.81,24.59v58.39h32.49V391.5C263.83,359.45,248.24,345,227.6,345Z" transform="translate(-101.53 -223.94)"/><path fill="#e02c00" d="M676,345a38.71,38.71,0,0,0-20.41,5.27,45.17,45.17,0,0,0-13.83,13h-.43C636.7,352,625.72,345,611.89,345a37.8,37.8,0,0,0-32.49,16.9h-.66l-1.54-14.49h-.63a30.16,30.16,0,0,0-26.66,26c0,2.67.07,5.39.07,8.24v73.1h32.49V392.16a22.06,22.06,0,0,1,1.32-8.34c2-5.49,7-12.07,15.58-12.07a12.86,12.86,0,0,1,10.56,5c3.22,4,4.81,10.2,4.81,17.86v60.15h32.49V391.94a27.86,27.86,0,0,1,1.32-8.56c2.19-6.37,7.68-11.64,15.36-11.64,10.76,0,15.81,9,15.81,24.59v58.39h32.49V391.5C712.22,359.45,696.64,345,676,345Z" transform="translate(-101.53 -223.94)"/><path fill="#e02c00" d="M500.73,377.55v77.18h33.37V347.38h-3.2A30.17,30.17,0,0,0,500.73,377.55Z" transform="translate(-101.53 -223.94)"/><path fill="#e02c00" d="M827.3,347.38H793.71v63.88a18.64,18.64,0,0,1-1.1,7.25c-2.19,5.27-7.46,11.63-16.68,11.63-11.63,0-16.68-9.44-16.68-25V347.38H725.66v63c0,33.15,16,46.76,37.76,46.76,19.32,0,29.42-11,33.59-17.56h.29l.44.73a30.09,30.09,0,0,0,23.52,14.41c.74.06,1.49.11,2.24.11s1.49-.06,2.24-.11,1.63-.16,2.43-.28c-.44-9-.87-20.27-.87-34.18Z" transform="translate(-101.53 -223.94)"/><path fill="#e02c00" d="M338.23,444.16c.35.41.73.81,1.09,1.2a30,30,0,0,0,19.84,9.36c.68,0,1.37.1,2.07.1s1.39-.06,2.07-.1h7.82c-.09-.46-.16-1-.24-1.5-.91-6-1.3-15.11-1.3-24.62V391.28c0-25.25-11.42-46.32-47.2-46.32-19.53,0-34.25,5.27-41.7,9.44l6.14,21.51c7-4.39,18.66-8.12,29.64-8.12,16.46,0,19.53,8.12,19.53,13.83v1.54c-38-.22-63,13.17-63,41.05,0,17.12,13,32.93,34.69,32.93C320.31,457.14,331.2,452.59,338.23,444.16ZM337.09,404v11.63a24.11,24.11,0,0,1-.66,5.71,17.52,17.52,0,0,1-5,7.56,18.37,18.37,0,0,1-12.3,4.73c-7.47,0-13.18-4.17-13.18-12.73C305.92,408,319.53,403.79,337.09,404Z" transform="translate(-101.53 -223.94)"/><path fill="#e02c00" d="M502.23,325.35C505.77,325.9,519,327,519,327l-5.13-101-1.81,3.5,1.81-5.57q-16.43,24.6-35.33,50.37-15.89,21.58-31.6,41.21l14.66,3.6c-1.23,3.35-3.06,8.2-5.4,14a433.12,433.12,0,0,1-21,44.2l-20.68-29.92H377.16l40.71,59.25a489.59,489.59,0,0,1-30.2,42.24,488,488,0,0,1-101.59,95.19c51.73-24.44,102.7-65.13,146.39-116.18l18.45,26.85h37.76l-35.93-52A565.26,565.26,0,0,0,502.23,325.35Z" transform="translate(-101.53 -223.94)"/></svg>